<svg xmlns="http://www.w3.org/2000/svg" viewBox="0 0 800 1000">
  <defs>
    <radialGradient id="bg" cx="400" cy="250" r="480" gradientUnits="userSpaceOnUse">
      <stop offset="0%" stop-color="#3d2410"/>
      <stop offset="55%" stop-color="#180f06"/>
      <stop offset="100%" stop-color="#0a0705"/>
    </radialGradient>
  </defs>
  <rect width="800" height="1000" fill="url(#bg)"/>
  <!-- Central tower -->
  <rect x="320" y="80" width="160" height="700" fill="#ffffff" opacity="0.07"/>
  <rect x="320" y="80" width="160" height="700" fill="none" stroke="#ffffff" stroke-width="2" opacity="0.24"/>
  <line x1="360" y1="80" x2="360" y2="780" stroke="#ffffff" stroke-width="1" opacity="0.14"/>
  <line x1="400" y1="80" x2="400" y2="780" stroke="#ffffff" stroke-width="1" opacity="0.14"/>
  <line x1="440" y1="80" x2="440" y2="780" stroke="#ffffff" stroke-width="1" opacity="0.14"/>
  <line x1="320" y1="150" x2="480" y2="150" stroke="#ffffff" stroke-width="0.8" opacity="0.14"/>
  <line x1="320" y1="220" x2="480" y2="220" stroke="#ffffff" stroke-width="0.8" opacity="0.14"/>
  <line x1="320" y1="290" x2="480" y2="290" stroke="#ffffff" stroke-width="0.8" opacity="0.14"/>
  <line x1="320" y1="360" x2="480" y2="360" stroke="#ffffff" stroke-width="0.8" opacity="0.14"/>
  <line x1="320" y1="430" x2="480" y2="430" stroke="#ffffff" stroke-width="0.8" opacity="0.14"/>
  <line x1="320" y1="500" x2="480" y2="500" stroke="#ffffff" stroke-width="0.8" opacity="0.14"/>
  <line x1="320" y1="570" x2="480" y2="570" stroke="#ffffff" stroke-width="0.8" opacity="0.14"/>
  <line x1="320" y1="640" x2="480" y2="640" stroke="#ffffff" stroke-width="0.8" opacity="0.14"/>
  <line x1="320" y1="710" x2="480" y2="710" stroke="#ffffff" stroke-width="0.8" opacity="0.14"/>
  <!-- Left building -->
  <rect x="110" y="290" width="180" height="490" fill="none" stroke="#ffffff" stroke-width="1.5" opacity="0.16"/>
  <line x1="155" y1="290" x2="155" y2="780" stroke="#ffffff" stroke-width="0.7" opacity="0.10"/>
  <line x1="200" y1="290" x2="200" y2="780" stroke="#ffffff" stroke-width="0.7" opacity="0.10"/>
  <line x1="245" y1="290" x2="245" y2="780" stroke="#ffffff" stroke-width="0.7" opacity="0.10"/>
  <line x1="110" y1="390" x2="290" y2="390" stroke="#ffffff" stroke-width="0.7" opacity="0.10"/>
  <line x1="110" y1="510" x2="290" y2="510" stroke="#ffffff" stroke-width="0.7" opacity="0.10"/>
  <line x1="110" y1="630" x2="290" y2="630" stroke="#ffffff" stroke-width="0.7" opacity="0.10"/>
  <line x1="110" y1="730" x2="290" y2="730" stroke="#ffffff" stroke-width="0.7" opacity="0.10"/>
  <!-- Right building -->
  <rect x="510" y="220" width="180" height="560" fill="none" stroke="#ffffff" stroke-width="1.5" opacity="0.16"/>
  <line x1="555" y1="220" x2="555" y2="780" stroke="#ffffff" stroke-width="0.7" opacity="0.10"/>
  <line x1="600" y1="220" x2="600" y2="780" stroke="#ffffff" stroke-width="0.7" opacity="0.10"/>
  <line x1="645" y1="220" x2="645" y2="780" stroke="#ffffff" stroke-width="0.7" opacity="0.10"/>
  <line x1="510" y1="320" x2="690" y2="320" stroke="#ffffff" stroke-width="0.7" opacity="0.10"/>
  <line x1="510" y1="440" x2="690" y2="440" stroke="#ffffff" stroke-width="0.7" opacity="0.10"/>
  <line x1="510" y1="560" x2="690" y2="560" stroke="#ffffff" stroke-width="0.7" opacity="0.10"/>
  <line x1="510" y1="680" x2="690" y2="680" stroke="#ffffff" stroke-width="0.7" opacity="0.10"/>
  <line x1="510" y1="760" x2="690" y2="760" stroke="#ffffff" stroke-width="0.7" opacity="0.10"/>
  <!-- Ground -->
  <line x1="0" y1="780" x2="800" y2="780" stroke="#ffffff" stroke-width="1.5" opacity="0.16"/>
</svg>
