<svg xmlns="http://www.w3.org/2000/svg" viewBox="0 0 836.36 873.35" fill="currentColor">
  <path d="M712.53,695.46l122.93,170.26c.99,1.38,1.2,4.24.44,5.12s-3.14,2.24-4.67,2.24l-179.68.26c-21.41.03-39.95-8.79-52.65-26.03l-187.57-257.86h-3.74s-.07,277.39-.07,277.39c0,3.08-2.27,5.48-5.17,5.48l-146.83-.08c-3.32,0-5.1-2-5.1-5.47V4.47c0-2.42,4.19-4.42,6.05-4.42l94.76.1c29.85,2.3,53.4,24.25,56.17,54.03l.3,454.32,154.92-197.1,77-99.1c10.11-14.56,25.73-25.63,44.15-25.66l144.2-.24c1.21,0,3.55.95,4.04,1.81.59,1.03.09,3.29-.68,5.06l-216.59,267.94-37.9,46.25,135.69,188Z"/>
  <path d="M113.77,871.76c-57.29-3.66-112.89-53.22-112.97-109.88L.19,337.09,0,6.34C0,2.75,1.93-.02,5.56,0l117.36.72c31.22,1.37,55.48,27.65,55.48,58.51l.02,807.52c0,3.63-2.91,5.57-5.96,5.54l-58.68-.53Z"/>
</svg>
